<svg xmlns="http://www.w3.org/2000/svg" xmlns:xlink="http://www.w3.org/1999/xlink" width="686.03" height="669.21" viewBox="0 0 686.03 669.21"><defs><style>.cls-1,.cls-4{fill:none;}.cls-2{clip-path:url(#clip-path);}.cls-3{fill:#1e2331;}.cls-4{stroke:#1e2331;}.cls-5{fill:#f3932d;}.cls-6{font-size:170px;fill:#fff;font-family:Renner-it-Medium, Renner*;}</style><clipPath id="clip-path" transform="translate(-5.48 -4.22)"><rect class="cls-1" width="697" height="673.87"/></clipPath></defs><title>del</title><g id="Layer_2" data-name="Layer 2"><g id="Layer_1-2" data-name="Layer 1"><g class="cls-2"><path class="cls-3" d="M348.5,672.93C537.67,672.93,691,523.35,691,338.83S537.67,4.72,348.5,4.72,6,154.31,6,338.83s153.35,334.1,342.52,334.1" transform="translate(-5.48 -4.22)"/><ellipse class="cls-4" cx="343.02" cy="334.6" rx="342.52" ry="334.1"/></g><path class="cls-5" d="M51,403.55a256,256,0,0,1,58.18-33.64,262.25,262.25,0,0,1,121.25-18.55l.41,40.24,63.16-57-64.66-63.29-.25,37.66a165.49,165.49,0,0,0-91.66,10.12C80.62,342.86,56.63,391.27,51,403.55Z" transform="translate(-5.48 -4.22)"/><text class="cls-6" transform="translate(320.07 385.44)">DEL</text></g></g></svg>
