<svg id="Layer_1" data-name="Layer 1" xmlns="http://www.w3.org/2000/svg" xmlns:xlink="http://www.w3.org/1999/xlink" width="738" height="711.11" viewBox="0 0 738 711.11">
  <defs>
    <style>
      .cls-1, .cls-4 {
        fill: none;
      }

      .cls-2 {
        clip-path: url(#clip-path);
      }

      .cls-3 {
        fill: #1e2331;
      }

      .cls-4 {
        stroke: #1e2331;
      }

      .cls-5 {
        fill: #f3932d;
      }

      .cls-6 {
        font-size: 170px;
        fill: #fff;
        font-family: Renner-it-Medium, Renner*;
      }
    </style>
    <clipPath id="clip-path">
      <rect class="cls-1" x="27.56" y="19.05" width="697" height="673.87"/>
    </clipPath>
  </defs>
  <title>del</title>
  <g class="cls-2">
    <path class="cls-3" d="M376.06,692c189.16,0,342.51-149.58,342.51-334.1S565.22,23.77,376.06,23.77,33.54,173.36,33.54,357.88,186.89,692,376.06,692"/>
    <ellipse class="cls-4" cx="376.06" cy="357.88" rx="342.52" ry="334.1"/>
  </g>
  <path class="cls-5" d="M78.56,422.6A256.2,256.2,0,0,1,136.73,389,262.29,262.29,0,0,1,258,370.41l.41,40.24,63.16-57-64.67-63.3L256.65,328A165.3,165.3,0,0,0,165,338.11C108.18,361.91,84.19,410.32,78.56,422.6Z"/>
  <text class="cls-6" transform="translate(353.11 408.71)">DEL</text>
</svg>
