<svg id="Layer_1" data-name="Layer 1" xmlns="http://www.w3.org/2000/svg" width="530" height="552.39" viewBox="0 0 530 552.39">
  <defs>
    <style>
      .cls-1 {
        fill: #1e2431;
      }

      .cls-2 {
        fill: #f3932d;
      }

      .cls-3 {
        font-size: 120px;
        fill: #f0f3f7;
        font-family: Renner-it-Medium, Renner*;
      }
    </style>
  </defs>
  <title>knapdel</title>
  <g>
    <path class="cls-1" d="M265.5,530.33A257,257,0,0,1,83.77,91.6,257,257,0,0,1,447.23,455.05,255.33,255.33,0,0,1,265.5,530.33Z"/>
    <path d="M265.5,16.83a256.57,256.57,0,0,1,99.84,492.84A256.57,256.57,0,0,1,165.66,37,255,255,0,0,1,265.5,16.83m0-1C123.29,15.83,8,131.11,8,273.33s115.29,257.5,257.5,257.5S523,415.54,523,273.33,407.71,15.83,265.5,15.83Z"/>
  </g>
  <path class="cls-2" d="M89,297.83a116.39,116.39,0,0,1,27.05-18.09,107.16,107.16,0,0,1,56.39-10l.19,21.63L202,260.74l-30.07-34L171.82,247a67.34,67.34,0,0,0-42.63,5.44C102.78,265.19,91.62,291.22,89,297.83Z"/>
  <text class="cls-3" transform="translate(234.57 306.12)">DEL</text>
</svg>
