<svg xmlns="http://www.w3.org/2000/svg" xmlns:xlink="http://www.w3.org/1999/xlink" viewBox="0 0 1240 102"><defs><style>.cls-1{fill:#b2b2b2;}.cls-2{fill:#ffae0b;}.cls-3{fill:#fff;}.cls-3,.cls-4{stroke:#000;}.cls-3,.cls-4,.cls-5,.cls-7,.cls-8{stroke-miterlimit:10;}.cls-5{stroke:#0c0c0c;}.cls-6{fill:#7f7f7f;}.cls-7,.cls-8,.cls-9{fill:none;}.cls-7{stroke:#ef0c0c;}.cls-8{stroke:red;}</style><symbol id="fugl1" data-name="fugl1" viewBox="0 0 200 98"><path class="cls-1" d="M168.41,30c1.4,2.59-6.83,9.41-10.06,11.83A24.2,24.2,0,0,1,153,45.14a22.51,22.51,0,0,1-11.4,1.64c-4.41-.58-11.42-3.23-14.08-8.21-1.37-2.57-1.42-5.21-4.36-9.85-2-3.2-2.81-3.21-3-4.6-.88-5.79,11.22-15.87,21.45-13.47a16.22,16.22,0,0,1,8,4.93c3,3.66,1.71,6.22,4,9.2a7.9,7.9,0,0,0,1.49,1.47C156.32,27.12,167.1,27.6,168.41,30Z"/><path class="cls-2" d="M156,44.81,184.5,32.66s-26.14-9.2-30.84-7.88c0,0-5.36,12.49,0,20.37Z"/><ellipse class="cls-3" cx="144.28" cy="27.08" rx="3.35" ry="4.27"/><ellipse class="cls-3" cx="150.98" cy="27.08" rx="3.35" ry="4.27"/><ellipse class="cls-4" cx="146.29" cy="28.06" rx="1.34" ry="1.31"/><ellipse class="cls-5" cx="152.99" cy="28.06" rx="1.34" ry="1.31"/><path class="cls-1" d="M119.81,24.45s-33.18-9.53-56,12.15c0,0-32.18,18.39-44.91,15.11S37,64.85,63.16,63.54s55.17,0,72.5-18.39"/><path class="cls-6" d="M100.7,28.72s-6-14.45-24.8-18.39v6.57s-4-9.2-12.07-10.51c0,0-.67,0,0,5.26,0,0-12.07-7.23-20.11-7.23C43.72,4.41,52.44,47.77,100.7,28.72Z"/><path class="cls-6" d="M110.93,46.72s0,15.62-15.87,26.21l-2.53-6.08s-.18,10-7.12,14.2c0,0-.62.25-2-4.87,0,0-8.39,11.16-15.84,14.14C67.54,90.33,58.89,47,110.93,46.72Z"/><path class="cls-6" d="M153.9,35.32c6,1.89,14.48,4.46,20.6,2,.44-.18.25-.9-.2-.72-6,2.42-14.25-.13-20.2-2-.46-.15-.66.58-.2.72Z"/><rect class="cls-9" width="200" height="98"/><path class="cls-7" d="M63.71,62.54S60.22,81.9,50.16,81.36a6.3,6.3,0,0,1,.3.66,7.84,7.84,0,0,1-1.4,8.47"/><path class="cls-8" d="M53.56,61.49S48.64,75,37.51,70.3a6,6,0,0,1,.45.61c1,1.53,3.09,5.73-.85,10.42"/><path class="cls-8" d="M35.21,80.65s4.37-8.2,2.7-9.5"/><path class="cls-8" d="M33.77,78.73s4.34-6.12,4.15-7.58"/><path class="cls-8" d="M47.81,89.68S51,85.43,50.08,82"/><path class="cls-8" d="M46.72,87.56s2.54-4.33,3.44-6.2"/></symbol><symbol id="fugl2" data-name="fugl2" viewBox="0 0 200 98"><path class="cls-1" d="M168.41,30c1.4,2.59-6.83,9.41-10.06,11.83A24.2,24.2,0,0,1,153,45.14a22.51,22.51,0,0,1-11.4,1.64c-4.41-.58-11.42-3.23-14.08-8.21-1.37-2.57-1.42-5.21-4.36-9.85-2-3.2-2.81-3.21-3-4.6-.88-5.79,11.22-15.87,21.45-13.47a16.22,16.22,0,0,1,8,4.93c3,3.66,1.71,6.22,4,9.2a7.9,7.9,0,0,0,1.49,1.47C156.32,27.12,167.1,27.6,168.41,30Z"/><path class="cls-2" d="M156,44.81,184.5,32.66s-26.14-9.2-30.84-7.88c0,0-5.36,12.49,0,20.37Z"/><ellipse class="cls-3" cx="144.28" cy="27.08" rx="3.35" ry="4.27"/><ellipse class="cls-3" cx="150.98" cy="27.08" rx="3.35" ry="4.27"/><ellipse class="cls-4" cx="144.29" cy="30.06" rx="1.34" ry="1.31"/><ellipse class="cls-5" cx="150.99" cy="30.06" rx="1.34" ry="1.31"/><path class="cls-1" d="M119.81,24.45s-33.18-9.53-56,12.15c0,0-32.18,18.39-44.91,15.11S37,64.85,63.16,63.54s55.17,0,72.5-18.39"/><path class="cls-6" d="M94.32,29.4S84.1,17.53,65,19.61l2,6.25s-6.68-7.5-14.73-6.25c0,0-.64.21,1.63,5,0,0-13.71-3.13-21.36-.63C32.61,24,54.34,62.48,94.32,29.4Z"/><path class="cls-6" d="M97.8,37.89s8,13.43-.25,30.65L92.26,64.6s5,8.69,1.13,15.84c0,0-.41.53-4.23-3.15,0,0-1.51,13.88-6.39,20.24C82.77,97.54,53.18,64.67,97.8,37.89Z"/><path class="cls-6" d="M153.9,35.32c6,1.89,14.48,4.46,20.6,2,.44-.18.25-.9-.2-.72-6,2.42-14.25-.13-20.2-2-.46-.15-.66.58-.2.72Z"/><rect class="cls-9" width="200" height="98"/><path class="cls-7" d="M63.47,56.86s4.14,19.23-5.37,22.55a6.3,6.3,0,0,1,.53.5,7.84,7.84,0,0,1,1.93,8.36"/><path class="cls-8" d="M53.68,59.74S54.27,74.11,42.19,74a6,6,0,0,1,.65.39c1.52,1,5,4.12,3.17,10"/><path class="cls-8" d="M44,84.44s.92-9.25-1.12-9.81"/><path class="cls-8" d="M41.93,83.22s1.68-7.31,1-8.59"/><path class="cls-8" d="M59.09,88s1.35-5.15-.82-8"/><path class="cls-8" d="M57.27,86.46s.71-5,.83-7"/></symbol><symbol id="New_Symbol" data-name="New Symbol" viewBox="0 0 200 101.92"><path class="cls-1" d="M168.41,30c1.4,2.59-6.83,9.41-10.06,11.83A24.2,24.2,0,0,1,153,45.14a22.51,22.51,0,0,1-11.4,1.64c-4.41-.58-11.42-3.23-14.08-8.21-1.37-2.57-1.42-5.21-4.36-9.85-2-3.2-2.81-3.21-3-4.6-.88-5.79,11.22-15.87,21.45-13.47a16.22,16.22,0,0,1,8,4.93c3,3.66,1.71,6.22,4,9.2a7.9,7.9,0,0,0,1.49,1.47C156.32,27.12,167.1,27.6,168.41,30Z"/><path class="cls-2" d="M156,44.81,184.5,32.66s-26.14-9.2-30.84-7.88c0,0-5.36,12.49,0,20.37Z"/><ellipse class="cls-3" cx="144.28" cy="27.08" rx="3.35" ry="4.27"/><ellipse class="cls-3" cx="150.98" cy="27.08" rx="3.35" ry="4.27"/><ellipse class="cls-4" cx="146.29" cy="28.06" rx="1.34" ry="1.31"/><ellipse class="cls-5" cx="152.99" cy="28.06" rx="1.34" ry="1.31"/><path class="cls-1" d="M119.81,24.45s-33.18-9.53-56,12.15c0,0-32.18,18.39-44.91,15.11S37,64.85,63.16,63.54s55.17,0,72.5-18.39"/><path class="cls-6" d="M92.33,48.27s-.46-15.66-16.58-26.05L73.4,28.35s-.46-10-7.51-14.13c0,0-.63-.24-1.88,4.91,0,0-8.68-11.07-16.19-13.94C47.82,5.18,40.45,48.79,92.33,48.27Z"/><path class="cls-6" d="M105,46.22s5.27,14.7-6.08,30l-4.44-4.87s3.21,9.48-1.9,15.77c0,0-.5.44-3.55-3.89,0,0-4.12,13.34-10.12,18.66C78.92,101.92,56.12,64,105,46.22Z"/><path class="cls-7" d="M67,63.61S65.84,83.25,55.79,83.9a6.3,6.3,0,0,1,.38.62,7.84,7.84,0,0,1-.38,8.57"/><path class="cls-8" d="M53.84,63.61S53.78,78,41.71,77.33a6,6,0,0,1,.63.42c1.47,1.09,4.85,4.35,2.72,10.09"/><path class="cls-8" d="M43.05,87.84s1.34-9.2-.67-9.85"/><path class="cls-8" d="M41,86.53s2-7.23,1.34-8.54"/><path class="cls-8" d="M54.45,92.44s2.68-4.6,1.34-7.88"/><path class="cls-8" d="M53.11,90.47s2-4.6,2.68-6.57"/><path class="cls-6" d="M153.9,35.32c6,1.89,14.48,4.46,20.6,2,.44-.18.25-.9-.2-.72-6,2.42-14.25-.13-20.2-2-.46-.15-.66.58-.2.72Z"/><rect class="cls-9" width="200" height="98"/></symbol><symbol id="fugl4" data-name="fugl4" viewBox="0 0 200 98"><path class="cls-1" d="M168.41,30c1.4,2.59-6.83,9.41-10.06,11.83A24.2,24.2,0,0,1,153,45.14a22.51,22.51,0,0,1-11.4,1.64c-4.41-.58-11.42-3.23-14.08-8.21-1.37-2.57-1.42-5.21-4.36-9.85-2-3.2-2.81-3.21-3-4.6-.88-5.79,11.22-15.87,21.45-13.47a16.22,16.22,0,0,1,8,4.93c3,3.66,1.71,6.22,4,9.2a7.9,7.9,0,0,0,1.49,1.47C156.32,27.12,167.1,27.6,168.41,30Z"/><path class="cls-2" d="M156,44.81,184.5,32.66s-26.14-9.2-30.84-7.88c0,0-5.36,12.49,0,20.37Z"/><ellipse class="cls-3" cx="144.28" cy="27.08" rx="3.35" ry="4.27"/><ellipse class="cls-3" cx="150.98" cy="27.08" rx="3.35" ry="4.27"/><ellipse class="cls-4" cx="144.29" cy="29.06" rx="1.34" ry="1.31"/><ellipse class="cls-5" cx="150.99" cy="30.06" rx="1.34" ry="1.31"/><path class="cls-1" d="M119.81,24.45s-33.18-9.53-56,12.15c0,0-32.18,18.39-44.91,15.11S37,64.85,63.16,63.54s55.17,0,72.5-18.39"/><path class="cls-6" d="M90.1,35.48S83.45,21.3,64.52,18.17l.28,6.56s-4.41-9-12.51-10c0,0-.67,0,.23,5.25,0,0-12.37-6.7-20.4-6.35C32.12,13.65,42.69,56.59,90.1,35.48Z"/><path class="cls-6" d="M115.7,42.68s3,15.32-10.46,28.81L101.57,66s1.77,9.85-4.22,15.32c0,0-.56.36-2.94-4.38,0,0-6.05,12.58-12.78,17C81.64,93.91,64.71,53.05,115.7,42.68Z"/><path class="cls-7" d="M67.48,57.62s4.25,19.2-5.24,22.58a6.3,6.3,0,0,1,.54.49,7.84,7.84,0,0,1,2,8.35"/><path class="cls-8" d="M54.81,61.22s3.87,13.85-7.91,16.51a6,6,0,0,1,.72.23c1.72.65,5.85,2.86,5.37,9"/><path class="cls-8" d="M51.06,87.48s-1.22-9.21-3.34-9.3"/><path class="cls-8" d="M48.77,86.77s0-7.5-1-8.58"/><path class="cls-8" d="M63.28,88.79s1.32-5.16-.87-7.95"/><path class="cls-8" d="M61.45,87.26s.68-5,.78-7.05"/><path class="cls-6" d="M153.9,35.32c6,1.89,14.48,4.46,20.6,2,.44-.18.25-.9-.2-.72-6,2.42-14.25-.13-20.2-2-.46-.15-.66.58-.2.72Z"/><rect class="cls-9" width="200" height="98"/></symbol></defs><title>fugl_asset_nu</title><g id="Layer_2" data-name="Layer 2"><g id="Layer_1-2" data-name="Layer 1"><use width="200" height="98" transform="translate(0 2)" xlink:href="#fugl1"/><use width="200" height="98" transform="translate(208 2)" xlink:href="#fugl2"/><use width="200" height="101.92" transform="translate(416)" xlink:href="#New_Symbol"/><use width="200" height="98" transform="translate(624 2)" xlink:href="#fugl4"/><use width="200" height="98" transform="translate(832 2)" xlink:href="#fugl1"/><use width="200" height="98" transform="translate(1040 2)" xlink:href="#fugl2"/></g></g></svg>
