<svg id="Layer_1" data-name="Layer 1" xmlns="http://www.w3.org/2000/svg" xmlns:xlink="http://www.w3.org/1999/xlink" viewBox="0 0 100.1 53.96"><defs><style>.cls-1,.cls-2{stroke:#969696;}.cls-1,.cls-2,.cls-3{stroke-miterlimit:10;}.cls-1{fill:url(#linear-gradient);}.cls-2{fill:url(#linear-gradient-2);}.cls-3{fill:none;stroke:#000;}.cls-4{fill:#c1c1c1;opacity:0.3;}</style><linearGradient id="linear-gradient" x1="3.8" y1="29.74" x2="102.9" y2="29.74" gradientUnits="userSpaceOnUse"><stop offset="0" stop-color="#fff"/><stop offset="0" stop-color="#8f958b"/><stop offset="0.84" stop-color="#bababa"/></linearGradient><linearGradient id="linear-gradient-2" x1="5.75" y1="37.5" x2="23.5" y2="37.5" xlink:href="#linear-gradient"/></defs><title>sky_ss</title><path class="cls-1" d="M4,31S7,18,25,17c0,0-7-9,6-12S49,3,57,7C57,7,93-3,94,27c0,0,17,7,4,19,0,0-7,7-22,3,0,0-13,14-34,3,0,0-25,8-36-10A17.78,17.78,0,0,1,4,31Z" transform="translate(-3.3 -2.76)"/><path class="cls-2" d="M10.5,23.5s-7,5-4,15A16.53,16.53,0,0,0,11,45.6a20.4,20.4,0,0,0,5.48,3.9,20.75,20.75,0,0,0,7,2,39.78,39.78,0,0,1-13-28Z" transform="translate(-3.3 -2.76)"/><path class="cls-3" d="M-17.5,9.5" transform="translate(-3.3 -2.76)"/><path class="cls-4" d="M21,20S10,20,6,32,23,49,23,49,5,38,21,20Z" transform="translate(-3.3 -2.76)"/></svg>
