<svg id="Layer_1" data-name="Layer 1" xmlns="http://www.w3.org/2000/svg" xmlns:xlink="http://www.w3.org/1999/xlink" width="738" height="711.11" viewBox="0 0 738 711.11">
  <defs>
    <style>
      .cls-1, .cls-4 {
        fill: none;
      }

      .cls-2 {
        clip-path: url(#clip-path);
      }

      .cls-3 {
        fill: #1e2331;
      }

      .cls-4 {
        stroke: #1e2331;
      }

      .cls-5 {
        font-size: 166px;
        fill: #fff;
        font-family: Renner-it-Medium, Renner*;
      }

      .cls-6, .cls-7 {
        fill: #f3932d;
        stroke-miterlimit: 10;
      }

      .cls-6 {
        stroke: #f3932d;
      }

      .cls-7 {
        stroke: #3a3a3f;
      }

      .cls-8 {
        fill: #3a3a3f;
      }
    </style>
    <clipPath id="clip-path">
      <rect class="cls-1" x="27.56" y="19.05" width="697" height="673.87"/>
    </clipPath>
  </defs>
  <title>slet</title>
  <g class="cls-2">
    <path class="cls-3" d="M376.06,692c189.16,0,342.51-149.58,342.51-334.1S565.22,23.77,376.06,23.77,33.54,173.36,33.54,357.88,186.89,692,376.06,692"/>
    <ellipse class="cls-4" cx="376.06" cy="357.88" rx="342.52" ry="334.1"/>
  </g>
  <text class="cls-5" transform="translate(285.11 418.59)">SLET</text>
  <polygon class="cls-6" points="136.59 286.9 140.75 426.58 256.96 425.88 261.13 286.9 136.59 286.9"/>
  <rect class="cls-7" x="123.99" y="259.89" width="151.56" height="27.01" rx="11.73" ry="11.73"/>
  <path class="cls-7" d="M169.11,259.9s-2.46-13.94,8.81-15,44.77,0,44.77,0,10.92.68,8.11,15Z"/>
  <line class="cls-1" x1="168.88" y1="412.62" x2="167.35" y2="300.03"/>
  <path class="cls-8" d="M173.25,412.62,171.72,300c-.08-5.62-8.81-5.64-8.74,0l1.53,112.59C164.58,418.24,173.32,418.25,173.25,412.62Z"/>
  <line class="cls-1" x1="232.02" y1="413.04" x2="230.49" y2="300.44"/>
  <path class="cls-8" d="M236.39,413l-1.53-112.59c-.07-5.62-8.81-5.63-8.73,0L227.65,413C227.73,418.66,236.46,418.67,236.39,413Z"/>
  <line class="cls-1" x1="200.55" y1="413.04" x2="199" y2="300.44"/>
  <path class="cls-8" d="M204.88,413l-1.45-112.59c-.07-5.62-8.81-5.63-8.74,0L196.15,413C196.22,418.66,205,418.67,204.88,413Z"/>
</svg>
