<svg id="del" xmlns="http://www.w3.org/2000/svg" width="530" height="552.39" viewBox="0 0 530 552.39">
  <defs>
    <style>
      .cls-1 {
        fill: #1e2431;
      }

      .cls-2 {
        font-size: 120px;
        fill: #f0f3f7;
        font-family: Renner-it-Medium, Renner*;
      }

      .cls-3, .cls-4 {
        fill: #f3932d;
      }

      .cls-4 {
        stroke: #3a3a3f;
        stroke-miterlimit: 10;
      }

      .cls-5 {
        fill: none;
      }

      .cls-6 {
        fill: #3a3a3f;
      }
    </style>
  </defs>
  <title>slet</title>
  <g>
    <path class="cls-1" d="M265.5,530.33A257,257,0,0,1,83.77,91.6,257,257,0,0,1,447.23,455.05,255.33,255.33,0,0,1,265.5,530.33Z"/>
    <path d="M265.5,16.83a256.57,256.57,0,0,1,99.84,492.84A256.57,256.57,0,0,1,165.66,37,255,255,0,0,1,265.5,16.83m0-1C123.29,15.83,8,131.11,8,273.33s115.29,257.5,257.5,257.5S523,415.54,523,273.33,407.71,15.83,265.5,15.83Z"/>
  </g>
  <text class="cls-2" transform="translate(234.57 306.12)">SLET</text>
  <polyline class="cls-3" points="181.46 324.1 184.32 228.64 98.78 228.64 101.64 324.58"/>
  <rect class="cls-4" x="89.5" y="210.09" width="104.1" height="18.55" rx="8.06" ry="8.06"/>
  <path class="cls-4" d="M120.49,210.1s-1.69-9.58,6.05-10.28,30.75,0,30.75,0,7.5.47,5.57,10.28Z"/>
  <line class="cls-5" x1="120.33" y1="314.99" x2="119.28" y2="237.66"/>
  <path class="cls-6" d="M123.33,315l-1-77.33c0-3.86-6-3.87-6,0l1,77.33C117.38,318.85,123.38,318.86,123.33,315Z"/>
  <line class="cls-5" x1="163.7" y1="315.28" x2="162.65" y2="237.94"/>
  <path class="cls-6" d="M166.7,315.28l-1-77.33c-.05-3.86-6.05-3.87-6,0l1,77.33C160.75,319.14,166.75,319.15,166.7,315.28Z"/>
  <line class="cls-5" x1="142.08" y1="315.28" x2="141.02" y2="237.94"/>
  <path class="cls-6" d="M145.06,315.28l-1-77.33c-.05-3.86-6.05-3.87-6,0l1,77.33C139.11,319.14,145.11,319.15,145.06,315.28Z"/>
</svg>
